<svg width="35" height="31" viewBox="0 0 35 31" fill="none" xmlns="http://www.w3.org/2000/svg">
<path d="M0.959904 15.8729C0.960083 16.0197 0.974705 16.1662 1.0036 16.3101C1.0036 16.3812 1.03642 16.4522 1.05828 16.5233C1.09809 16.6498 1.1493 16.7723 1.21131 16.8895C1.3118 17.0906 1.4427 17.2749 1.59939 17.4361L14.3783 30.2205C14.5815 30.4236 14.8226 30.5848 15.088 30.6947C15.3534 30.8046 15.6379 30.8612 15.9251 30.8612C16.2124 30.8612 16.4969 30.8046 16.7623 30.6947C17.0277 30.5848 17.2688 30.4236 17.4719 30.2205C17.6751 30.0174 17.8362 29.7762 17.9462 29.5108C18.0561 29.2454 18.1127 28.9609 18.1127 28.6737C18.1127 28.3864 18.0561 28.102 17.9462 27.8366C17.8362 27.5712 17.6751 27.33 17.4719 27.1269L8.42064 18.0756H31.8469C32.4267 18.0756 32.9828 17.8453 33.3929 17.4352C33.8029 17.0252 34.0332 16.4691 34.0332 15.8893C34.0332 15.3094 33.8029 14.7533 33.3929 14.3433C32.9828 13.9333 32.4267 13.703 31.8469 13.703H8.42064L17.5102 4.6189C17.9241 4.20866 18.158 3.65081 18.1606 3.06808C18.1632 2.48535 17.9341 1.92548 17.5239 1.51162C17.1136 1.09776 16.5558 0.86379 15.9731 0.861227C15.3903 0.858665 14.8305 1.0877 14.4166 1.49794L1.59939 14.3206C1.5446 14.37 1.49513 14.4249 1.4518 14.4846C1.40453 14.5421 1.36074 14.6023 1.32063 14.665C1.279 14.7237 1.24243 14.7859 1.21131 14.8508C1.1815 14.9033 1.15594 14.9582 1.13481 15.0147C1.13481 15.0749 1.08562 15.135 1.06376 15.1951C0.994995 15.4145 0.959976 15.643 0.959904 15.8729Z" fill="#1C1952"/>
</svg>
