<svg xmlns="http://www.w3.org/2000/svg" width="43" height="43" viewBox="0 0 43 43" fill="none">
<path d="M31.8197 10.6066C29.722 8.50883 27.0492 7.08021 24.1395 6.50143C21.2298 5.92265 18.2138 6.21971 15.4729 7.35503C12.732 8.49034 10.3893 10.4129 8.74109 12.8797C7.09287 15.3464 6.21317 18.2465 6.21317 21.2132C6.21317 24.18 7.09289 27.08 8.74111 29.5468C10.3893 32.0135 12.732 33.9361 15.4729 35.0714C18.2138 36.2067 21.2298 36.5037 24.1395 35.925C27.0492 35.3462 29.722 33.9176 31.8197 31.8198C34.6261 29.0032 36.2019 25.1892 36.2019 21.2132C36.2019 17.2372 34.6261 13.4232 31.8197 10.6066V10.6066ZM13.1618 29.2646C11.5725 27.6753 10.4903 25.6505 10.0518 23.4462C9.61332 21.2419 9.83833 18.957 10.6984 16.8806C11.5585 14.8042 13.015 13.0294 14.8838 11.7808C16.7525 10.5321 18.9496 9.86563 21.1971 9.86562C23.4446 9.86562 25.6416 10.5321 27.5103 11.7808C29.3791 13.0294 30.8356 14.8041 31.6957 16.8806C32.5558 18.957 32.7808 21.2419 32.3424 23.4462C31.9039 25.6505 30.8216 27.6753 29.2324 29.2646C27.1013 31.3957 24.2109 32.5929 21.1971 32.5929C18.1832 32.5929 15.2929 31.3957 13.1618 29.2646Z" fill="#DE1F26"/>
<path d="M26.1591 26.1664C25.786 26.5395 25.28 26.7491 24.7523 26.7491C24.2246 26.749 23.7186 26.5394 23.3454 26.1662L21.2096 24.0305L19.077 26.1631C18.7039 26.5362 18.1979 26.7458 17.6702 26.7457C17.1425 26.7457 16.6365 26.536 16.2633 26.1629C15.8902 25.7897 15.6805 25.2837 15.6805 24.756C15.6804 24.2283 15.89 23.7223 16.2631 23.3492L18.3985 21.2137L16.2628 19.078C15.8896 18.7048 15.68 18.1988 15.6799 17.6711C15.6799 17.1434 15.8895 16.6374 16.2626 16.2643C16.6357 15.8912 17.1417 15.6816 17.6694 15.6817C18.1971 15.6817 18.7031 15.8913 19.0763 16.2645L21.212 18.4002L23.2997 16.3126C23.6223 15.9757 24.0499 15.7584 24.5123 15.6965C24.7921 15.6619 25.0762 15.6871 25.3455 15.7706C25.6149 15.854 25.8634 15.9938 26.0747 16.1806C26.286 16.3674 26.4551 16.5969 26.5709 16.854C26.6868 17.1111 26.7466 17.3899 26.7466 17.6719C26.747 17.9336 26.6958 18.1929 26.5958 18.4348C26.4959 18.6766 26.3493 18.8964 26.1642 19.0815L24.0288 21.217L26.1139 23.3021C26.4513 23.6198 26.6739 24.0404 26.7471 24.498C26.7844 24.8026 26.7508 25.1117 26.6488 25.4012C26.5468 25.6906 26.3792 25.9525 26.1591 26.1664V26.1664Z" fill="#DE1F26"/>
</svg>