<svg width="40" height="41" viewBox="0 0 40 41" fill="none" xmlns="http://www.w3.org/2000/svg">
<path d="M-0.000977437 20.3612C-0.000977264 24.3168 1.17201 28.1836 3.36964 31.4726C5.56727 34.7616 8.69084 37.325 12.3454 38.8388C15.9999 40.3525 20.0212 40.7486 23.9008 39.9769C27.7804 39.2052 31.3441 37.3003 34.1412 34.5033C36.9382 31.7062 38.843 28.1426 39.6147 24.263C40.3864 20.3834 39.9904 16.3621 38.4766 12.7075C36.9629 9.05301 34.3994 5.92945 31.1104 3.73182C27.8214 1.53419 23.9546 0.361205 19.999 0.361205C14.6976 0.370818 9.61614 2.48103 5.86749 6.22968C2.11885 9.97832 0.008635 15.0598 -0.000977437 20.3612ZM35.1808 20.3612C35.1808 23.3579 34.2922 26.2873 32.6273 28.7789C30.9625 31.2706 28.5962 33.2126 25.8276 34.3594C23.059 35.5062 20.0125 35.8062 17.0734 35.2216C14.1343 34.6369 11.4346 33.1939 9.31558 31.075C7.1966 28.956 5.75358 26.2562 5.16896 23.3171C4.58433 20.378 4.88436 17.3316 6.03114 14.563C7.17793 11.7944 9.11995 9.42804 11.6116 7.76317C14.1033 6.0983 17.0326 5.20969 20.0293 5.20969C24.0477 5.20969 27.9016 6.80603 30.7431 9.64749C33.5845 12.4889 35.1808 16.3428 35.1808 20.3612Z" fill="white"/>
<path d="M14.3418 26.0179L25.6555 14.7042" stroke="white" stroke-width="4" stroke-linecap="round"/>
<path d="M14.3418 14.7042L25.6555 26.0179" stroke="white" stroke-width="4" stroke-linecap="round"/>
</svg>
