<svg width="51" height="50" viewBox="0 0 51 50" fill="none" xmlns="http://www.w3.org/2000/svg">
<rect width="51" height="50" fill="#1E1E1E"/>
<rect id="Rectangle 1701" x="-249.683" y="-800.977" width="2603.71" height="2481.68" stroke="#FF0000" stroke-width="10"/>
<g id="Main screen" clip-path="url(#clip0_123_7)">
<rect width="1080" height="1920" transform="translate(-99.3911 -484)" fill="white"/>
<g id="Category 5">
<g id="Group 2650">
<path id="Vector" d="M25.6089 50C39.416 50 50.6089 38.8071 50.6089 25C50.6089 11.1929 39.416 0 25.6089 0C11.8018 0 0.608887 11.1929 0.608887 25C0.608887 38.8071 11.8018 50 25.6089 50Z" fill="#1C1952"/>
<path id="Vector_2" d="M35.8988 21.06L34.8988 21.3299H34.7188L27.3888 23.1899C24.867 24.0033 22.1363 23.879 19.6988 22.8399C18.5988 22.4599 15.3288 21.29 15.3288 21.29C15.2335 21.2579 15.1507 21.1968 15.092 21.1151C15.0333 21.0335 15.0017 20.9355 15.0017 20.8349C15.0017 20.7344 15.0333 20.6364 15.092 20.5547C15.1507 20.4731 15.2335 20.4119 15.3288 20.3799L24.3288 18.0899C26.5336 17.3061 28.9581 17.4211 31.0788 18.4099L35.9088 20.12C36.0335 20.1213 36.1525 20.1721 36.2397 20.2611C36.3269 20.3502 36.3752 20.4703 36.3738 20.5949C36.3725 20.7196 36.3217 20.8386 36.2326 20.9258C36.1435 21.013 36.0235 21.0613 35.8988 21.06Z" fill="white"/>
<path id="Vector_3" d="M15.3989 11.67L19.5189 20.51L18.8689 20.66C18.8406 20.6709 18.8163 20.6901 18.7991 20.7151C18.7819 20.7401 18.7727 20.7697 18.7727 20.8001C18.7727 20.8304 18.7819 20.86 18.7991 20.885C18.8163 20.9099 18.8406 20.9291 18.8689 20.94L19.8689 21.27L21.9389 21.95L22.4189 22.09C23.7265 22.4452 25.1028 22.4624 26.4189 22.14C27.9989 21.75 32.7089 20.53 32.7089 20.53C32.746 20.53 32.7816 20.5153 32.8079 20.489C32.8341 20.4628 32.8489 20.4271 32.8489 20.39C32.8489 20.3529 32.8341 20.3173 32.8079 20.291C32.7816 20.2648 32.746 20.25 32.7089 20.25L29.4489 19.18C28.1497 18.6362 26.6987 18.5759 25.3589 19.01L21.5289 20.01L17.2289 10.8C17.1797 10.6721 17.1048 10.5557 17.0088 10.458C16.9128 10.3602 16.7977 10.2832 16.6707 10.2318C16.5437 10.1804 16.4075 10.1556 16.2705 10.159C16.1336 10.1624 15.9987 10.1939 15.8745 10.2516C15.7502 10.3093 15.6391 10.3919 15.548 10.4943C15.457 10.5967 15.388 10.7167 15.3453 10.8469C15.3025 10.9771 15.287 11.1147 15.2997 11.2511C15.3124 11.3876 15.3529 11.5199 15.4189 11.64L15.3989 11.67Z" fill="#1C1952"/>
<path id="Vector_4" d="M15.3989 11.67L19.5189 20.51L21.5289 20.01L17.2289 10.8C17.1797 10.6721 17.1048 10.5557 17.0088 10.458C16.9128 10.3602 16.7977 10.2832 16.6707 10.2318C16.5437 10.1804 16.4075 10.1556 16.2705 10.159C16.1336 10.1624 15.9987 10.1939 15.8745 10.2516C15.7502 10.3093 15.6391 10.3919 15.548 10.4943C15.457 10.5967 15.388 10.7167 15.3453 10.8469C15.3025 10.9771 15.287 11.1147 15.2997 11.2511C15.3124 11.3876 15.3529 11.5199 15.4189 11.64L15.3989 11.67Z" fill="white"/>
<path id="Vector_5" d="M16.8389 35.1401C16.848 35.7903 17.0508 36.423 17.4213 36.9573C17.7918 37.4917 18.3132 37.9035 18.9189 38.1401L19.1389 38.2301C22.1058 39.2824 25.3186 39.4286 28.3689 38.6501L31.4889 37.8601C32.0969 37.7067 32.6364 37.3549 33.0222 36.8605C33.408 36.3661 33.6179 35.7572 33.6189 35.1301V23.1201L27.4689 24.6801C25.0036 25.3096 22.4067 25.1912 20.0089 24.3401L16.8389 23.2101V35.1401Z" fill="white"/>
<path id="Vector_6" d="M19.0088 29.24V33.67C19.0088 35.54 20.3288 36.73 22.7988 36.73" stroke="#1C1952" stroke-width="1.2" stroke-miterlimit="10"/>
</g>
<rect x="-48.8911" y="-19.5" width="149" height="121" rx="7.5" stroke="#BBBBBB"/>
</g>
</g>
<defs>
<clipPath id="clip0_123_7">
<rect width="1080" height="1920" fill="white" transform="translate(-99.3911 -484)"/>
</clipPath>
</defs>
</svg>
