<svg width="51" height="50" viewBox="0 0 51 50" fill="none" xmlns="http://www.w3.org/2000/svg">
<circle cx="25.6089" cy="25" r="25" fill="#1C1952"/>
<path d="M34.6034 13.3513H17.6093L20.4416 36.8567H31.771L34.6034 13.3513Z" fill="white"/>
<path d="M18.1093 13.3505C18.1093 13.4137 18.1611 13.5922 18.5507 13.847C18.9195 14.0882 19.4862 14.3246 20.2313 14.5307C21.7144 14.941 23.7917 15.2011 26.1063 15.2011C28.4209 15.2011 30.4983 14.941 31.9814 14.5307C32.7264 14.3246 33.2932 14.0882 33.662 13.847C34.0516 13.5922 34.1034 13.4137 34.1034 13.3505C34.1034 13.2874 34.0516 13.1089 33.662 12.8541C33.2932 12.6128 32.7264 12.3765 31.9814 12.1704C30.4983 11.7601 28.4209 11.5 26.1063 11.5C23.7917 11.5 21.7144 11.7601 20.2313 12.1704C19.4862 12.3765 18.9195 12.6128 18.5507 12.8541C18.1611 13.1089 18.1093 13.2874 18.1093 13.3505Z" fill="#1C1952" stroke="white"/>
<mask id="mask0_123_310" style="mask-type:alpha" maskUnits="userSpaceOnUse" x="17" y="11" width="18" height="28">
<path fill-rule="evenodd" clip-rule="evenodd" d="M17.609 13.3505C17.609 13.4048 17.6156 13.4586 17.6287 13.512L20.4416 36.8559H20.4417C20.4439 37.5046 22.9793 38.0304 26.1064 38.0304C29.235 38.0304 31.7711 37.5042 31.7711 36.8551L34.5845 13.5074C34.5967 13.4563 34.6029 13.4048 34.6031 13.3529L34.6034 13.3505H34.6031L34.6031 13.3505C34.6031 12.0524 30.7989 11 26.106 11C21.4132 11 17.609 12.0524 17.609 13.3505Z" fill="white"/>
</mask>
<g mask="url(#mask0_123_310)">
<path d="M25.162 26.0276C19.4972 26.0276 18.5531 26.2798 18.0811 27.455L17.609 30.9808L22.8017 45.0841L35.5473 42.7335L39.7958 28.6303C31.7708 28.6303 32.2428 26.0276 25.162 26.0276Z" fill="#1C1952"/>
</g>
<path d="M19.7301 21.75C19.5808 21.75 19.4647 21.8801 19.4817 22.0285L21.0857 36.0285C21.1001 36.1547 21.207 36.25 21.3341 36.25H30.884C31.011 36.25 31.1179 36.1547 31.1323 36.0285L32.7363 22.0285C32.7533 21.8801 32.6372 21.75 32.4879 21.75H19.7301Z" stroke="white" stroke-width="1.5"/>
</svg>
