<svg width="51" height="50" viewBox="0 0 51 50" fill="none" xmlns="http://www.w3.org/2000/svg">
<circle cx="25.6089" cy="25" r="25" fill="#1C1952"/>
<path d="M33.8621 42.6019C34.2411 42.6019 34.6148 42.5129 34.9531 42.3419C35.2913 42.171 35.5847 41.923 35.8095 41.6179C36.1619 41.1577 36.3866 40.6127 36.4609 40.0378C37.1556 39.9339 37.7913 39.5878 38.2557 39.0607C38.6961 38.49 38.9108 37.777 38.8586 37.058C39.513 36.6776 40.0059 36.0714 40.2446 35.3532C40.4397 34.7574 40.4176 34.1117 40.1822 33.5306C40.6706 32.8842 40.8982 32.0778 40.8198 31.2715C40.7553 30.5187 40.4546 29.8056 39.9605 29.2341C40.1704 28.658 40.1958 28.0309 40.0331 27.4398C39.8705 26.8487 39.5278 26.3229 39.0527 25.9354C38.5676 25.5126 37.9427 25.2854 37.2994 25.2979C36.6911 25.3001 36.0957 25.4729 35.5808 25.7968C34.9207 25.4302 34.1508 25.3132 33.4116 25.4671C32.6725 25.6211 32.0133 26.0357 31.5545 26.6353C31.4438 26.625 31.3325 26.625 31.2218 26.6353C30.8193 26.6441 30.4228 26.7354 30.0568 26.9034C29.6909 27.0715 29.3633 27.3128 29.0943 27.6125C28.7453 27.9673 28.5048 28.4145 28.4014 28.9014C27.7333 29.0284 27.1401 29.4082 26.7451 29.9617C26.3581 30.5615 26.187 31.2752 26.26 31.9852C25.8713 32.1227 25.5266 32.362 25.2621 32.6782C23.7444 34.5285 24.7216 36.3442 25.5878 37.9381C25.993 38.6042 26.312 39.3191 26.5372 40.0656C26.6836 40.5768 27.0041 41.0208 27.4432 41.3207C27.8823 41.6206 28.4124 41.7576 28.9419 41.7079C30.272 41.6584 31.5961 41.9095 32.8157 42.4425C33.1386 42.5569 33.478 42.6177 33.8206 42.6227L33.8621 42.6019Z" fill="#1C1952"/>
<path d="M27.1817 39.8994C26.6134 37.5224 23.9177 35.3187 25.7957 33.0526C26.1066 32.699 26.5399 32.4762 27.0084 32.4289C27.0084 32.4289 26.3154 29.6569 29.0458 29.4075C29.0483 29.0667 29.1303 28.7312 29.2852 28.4277C29.4402 28.1242 29.6638 27.8611 29.9384 27.6592C30.2129 27.4573 30.5308 27.3223 30.8667 27.2649C31.2026 27.2075 31.5472 27.2293 31.8732 27.3285C32.0477 27.007 32.29 26.7273 32.5833 26.5088C32.8767 26.2903 33.214 26.1382 33.572 26.063C33.9299 25.9879 34.3 25.9915 34.6564 26.0736C35.0128 26.1557 35.3472 26.3143 35.6362 26.5385C36.0388 26.1516 36.5677 25.9232 37.1254 25.8956C37.6831 25.868 38.232 26.0429 38.6709 26.3881C39.1098 26.7333 39.4091 27.2255 39.5137 27.774C39.6182 28.3225 39.5209 28.8904 39.2397 29.3728C39.5319 29.6161 39.7709 29.9168 39.9419 30.2564C40.1129 30.596 40.2122 30.9671 40.2336 31.3466C40.2551 31.7262 40.1982 32.1062 40.0666 32.4628C39.9349 32.8195 39.7313 33.1453 39.4684 33.4199C39.6304 33.7104 39.7267 34.0329 39.7505 34.3646C39.7742 34.6964 39.7249 35.0293 39.6059 35.3399C39.487 35.6506 39.3013 35.9313 39.062 36.1623C38.8227 36.3933 38.5356 36.569 38.221 36.6769C38.3527 37.8204 38.124 39.3034 35.8441 39.4836C36.0381 40.2459 35.2204 42.5743 33.0721 41.819C31.7877 41.2643 30.3954 41.0038 28.9973 41.0567C28.6066 41.1104 28.2095 41.0235 27.8769 40.8115C27.5444 40.5995 27.298 40.2762 27.1817 39.8994Z" fill="white"/>
<path d="M26.8008 42.1652C26.8008 42.1652 31.2775 33.3226 37.3828 28.7696" stroke="#1C1952" stroke-miterlimit="10"/>
<path d="M32.8643 28.5828C33.4456 29.7416 33.6859 31.0418 33.5573 32.3319C33.5573 32.3319 34.8393 31.5973 38.1449 32.7061" stroke="#1C1952" stroke-miterlimit="10"/>
<path d="M29.434 30.8694C29.434 30.8694 31.2912 32.0475 31.2219 35.1867C32.155 34.8209 33.155 34.6571 34.156 34.7061C35.157 34.755 36.1363 35.0157 37.0292 35.4709" stroke="#1C1952" stroke-miterlimit="10"/>
<path d="M27.0293 33.6414C27.6988 34.2079 28.233 34.9171 28.5927 35.7169C28.9524 36.5167 29.1286 37.3869 29.1083 38.2637C31.9842 36.4273 35.3452 38.0835 35.3452 38.0835" stroke="#1C1952" stroke-miterlimit="10"/>
<path d="M34.5269 26.9474C34.5269 27.5217 34.9924 27.9872 35.5667 27.9872C36.1409 27.9872 36.6064 27.5217 36.6064 26.9474C36.6064 26.3732 36.1409 25.9077 35.5667 25.9077C34.9924 25.9077 34.5269 26.3732 34.5269 26.9474Z" fill="white"/>
<path d="M22.6086 26.7811H11.885L13.6723 41.6135H20.8214L22.6086 26.7811Z" fill="white"/>
<path d="M12.385 26.7812C12.385 26.8673 12.4294 27.0084 12.6392 27.1954C12.8485 27.3822 13.1798 27.5732 13.6319 27.7438C14.5326 28.0836 15.8106 28.3041 17.2468 28.3041C18.6831 28.3041 19.961 28.0836 20.8617 27.7438C21.3139 27.5732 21.6451 27.3822 21.8545 27.1954C22.0642 27.0084 22.1086 26.8673 22.1086 26.7812C22.1086 26.695 22.0642 26.5539 21.8545 26.3669C21.6451 26.1802 21.3139 25.9891 20.8617 25.8186C19.961 25.4787 18.6831 25.2582 17.2468 25.2582C15.8106 25.2582 14.5326 25.4787 13.6319 25.8186C13.1798 25.9891 12.8485 26.1802 12.6392 26.3669C12.4294 26.5539 12.385 26.695 12.385 26.7812Z" fill="#1C1952" stroke="white"/>
<mask id="mask0_129_596" style="mask-type:alpha" maskUnits="userSpaceOnUse" x="11" y="26" width="12" height="17">
<path fill-rule="evenodd" clip-rule="evenodd" d="M11.885 26.7806H22.6086L20.8215 41.612C20.8215 41.6121 20.8215 41.6123 20.8215 41.6125C20.8215 42.0221 19.2211 42.3541 17.2469 42.3541C15.2736 42.3541 13.6737 42.0223 13.6724 41.613H13.6723L11.885 26.7806Z" fill="white"/>
</mask>
<g mask="url(#mask0_129_596)">
<path d="M16.6508 34.7802C13.0763 34.7802 12.4805 34.9393 12.1826 35.6809L11.8848 37.9058L15.1614 46.8052L23.2042 45.322L25.8851 36.4225C20.8211 36.4225 21.119 34.7802 16.6508 34.7802Z" fill="#1C1952"/>
</g>
<path d="M13.1574 32.1076C13.1143 32.1076 13.0807 32.1452 13.0857 32.1881L14.1112 41.1399C14.1154 41.1764 14.1463 41.2039 14.183 41.2039H20.3141C20.3508 41.2039 20.3817 41.1764 20.3858 41.1399L21.4114 32.1881C21.4163 32.1452 21.3828 32.1076 21.3396 32.1076H13.1574Z" stroke="white"/>
<path d="M30.3115 19.909C30.3164 20.2593 30.4257 20.6001 30.6253 20.888C30.8248 21.1758 31.1057 21.3977 31.432 21.5251L31.5505 21.5736C33.1488 22.1405 34.8796 22.2193 36.5227 21.7999L38.2034 21.3743C38.531 21.2916 38.8216 21.1021 39.0295 20.8358C39.2373 20.5695 39.3504 20.2415 39.3509 19.9036V13.4339L36.0379 14.2743C34.7098 14.6134 33.3109 14.5496 32.0192 14.0911L30.3115 13.4824V19.909Z" fill="white"/>
<path d="M40.0403 12.9695H40.1066L40.1706 12.9522L40.6606 12.82C40.8286 12.8023 40.9867 12.7284 41.1086 12.6091C41.2513 12.4694 41.3327 12.2787 41.3349 12.0789C41.337 11.8791 41.2597 11.6867 41.1199 11.544L40.7626 11.8938L41.1199 11.544C41.0047 11.4263 40.8549 11.3504 40.694 11.3261L38.1714 10.433C36.9225 9.85769 35.4988 9.79031 34.2011 10.2451L29.3747 11.4732L29.3565 11.4778L29.3387 11.4838C29.1881 11.5344 29.0572 11.631 28.9644 11.76C28.8717 11.8891 28.8218 12.044 28.8218 12.2029C28.8218 12.3617 28.8717 12.5166 28.9644 12.6457C29.056 12.773 29.1848 12.8688 29.3329 12.92L29.3347 12.9206L29.3495 12.9259L29.4065 12.9463L29.6143 13.0205C29.7888 13.0828 30.0277 13.1681 30.2851 13.2597C30.7898 13.4394 31.3687 13.6448 31.6725 13.7499C33.0872 14.3483 34.6696 14.4201 36.1327 13.9523L40.0058 12.9695H40.0403Z" fill="white" stroke="#1C1952"/>
<path d="M29.5357 7.26576L31.7552 12.0278L31.405 12.1087C31.3898 12.1145 31.3767 12.1248 31.3674 12.1383C31.3582 12.1518 31.3532 12.1677 31.3532 12.1841C31.3532 12.2004 31.3582 12.2164 31.3674 12.2298C31.3767 12.2433 31.3898 12.2536 31.405 12.2595L31.9437 12.4373L33.0588 12.8036L33.3174 12.879C34.0218 13.0703 34.7632 13.0796 35.4722 12.9059C36.3233 12.6958 38.8606 12.0386 38.8606 12.0386C38.8806 12.0386 38.8998 12.0307 38.9139 12.0165C38.9281 12.0024 38.936 11.9832 38.936 11.9632C38.936 11.9432 38.9281 11.924 38.9139 11.9099C38.8998 11.8957 38.8806 11.8878 38.8606 11.8878L37.1044 11.3114C36.4046 11.0184 35.6229 10.9859 34.9012 11.2198L32.8379 11.7585L30.5215 6.79708C30.4951 6.72818 30.4547 6.66547 30.403 6.61281C30.3513 6.56015 30.2893 6.51868 30.2209 6.49097C30.1524 6.46327 30.0791 6.44993 30.0053 6.45177C29.9315 6.4536 29.8589 6.47057 29.7919 6.50164C29.725 6.53272 29.6651 6.57722 29.6161 6.63239C29.567 6.68756 29.5298 6.75222 29.5068 6.82235C29.4838 6.89248 29.4755 6.9666 29.4823 7.0401C29.4891 7.11359 29.511 7.18489 29.5465 7.24959L29.5357 7.26576Z" fill="#1C1952"/>
<path d="M29.5357 7.26576L31.7552 12.0278L32.8379 11.7585L30.5215 6.79708C30.4951 6.72818 30.4547 6.66547 30.403 6.61281C30.3513 6.56015 30.2893 6.51868 30.2209 6.49097C30.1524 6.46327 30.0791 6.44993 30.0053 6.45177C29.9315 6.4536 29.8589 6.47057 29.7919 6.50164C29.725 6.53272 29.6651 6.57722 29.6161 6.63239C29.567 6.68756 29.5298 6.75222 29.5068 6.82235C29.4838 6.89248 29.4755 6.9666 29.4823 7.0401C29.4891 7.11359 29.511 7.18489 29.5465 7.24959L29.5357 7.26576Z" fill="white"/>
<path d="M31.4805 16.7307V19.1171C31.4805 20.1244 32.1915 20.7655 33.5221 20.7655" stroke="#1C1952" stroke-miterlimit="10"/>
<path d="M26.2213 18.3841C26.2213 18.3841 22.5415 18.3841 18.0022 18.3841C13.4629 18.3841 9.78308 18.3841 9.78308 18.3841C9.78308 13.8448 13.4629 10.165 18.0022 10.165C22.5415 10.165 26.2213 13.8448 26.2213 18.3841Z" fill="white"/>
<path d="M12.343 14.9344C13.0909 13.5224 14.3159 12.4021 15.8033 11.7881" stroke="#1C1952"/>
<rect x="7.83665" y="18.4673" width="20.331" height="3.33703" rx="1.66851" fill="white" stroke="#1C1952" stroke-width="1.54447"/>
<path d="M18.408 9C18.6322 9 18.814 9.18174 18.814 9.40593C18.814 9.63012 18.6322 9.81185 18.408 9.81185L17.5962 9.81185C17.372 9.81185 17.1903 9.63012 17.1903 9.40593C17.1903 9.18174 17.372 9 17.5962 9L18.408 9Z" fill="white"/>
</svg>
