<svg width="51" height="50" viewBox="0 0 51 50" fill="none" xmlns="http://www.w3.org/2000/svg">
<circle cx="25.6089" cy="25" r="25" fill="#1C1952"/>
<path d="M39.6089 28.7371C39.6089 28.7371 33.3409 28.7371 25.6089 28.7371C17.8769 28.7371 11.6089 28.7371 11.6089 28.7371C11.6089 21.0051 17.8769 14.7371 25.6089 14.7371C33.3409 14.7371 39.6089 21.0051 39.6089 28.7371Z" fill="white"/>
<path d="M15.9696 22.8609C17.2434 20.4559 19.3301 18.5475 21.8636 17.5018" stroke="#1C1952" stroke-width="1.5"/>
<rect x="8.85889" y="29.4441" width="33.5" height="4.55334" rx="1.75" fill="white" stroke="#1C1952" stroke-width="1.5"/>
<path d="M26.3003 12.7526C26.6821 12.7526 26.9917 13.0622 26.9917 13.4441C26.9917 13.8259 26.6821 14.1355 26.3003 14.1355L24.9174 14.1355C24.5355 14.1355 24.226 13.8259 24.226 13.4441C24.226 13.0622 24.5355 12.7526 24.9174 12.7526L26.3003 12.7526Z" fill="white"/>
</svg>
