<svg width="30" height="30" viewBox="0 0 30 30" fill="none" xmlns="http://www.w3.org/2000/svg">
<path d="M15 0C12.0333 0 9.13318 0.879744 6.66645 2.52796C4.19971 4.17619 2.27714 6.51886 1.14183 9.25975C0.00651276 12.0006 -0.290555 15.0166 0.288223 17.9264C0.867 20.8361 2.29566 23.5088 4.39344 25.6066C6.49123 27.7044 9.16395 29.133 12.0737 29.7118C14.9834 30.2906 17.9994 29.9935 20.7403 28.8582C23.4811 27.7229 25.8238 25.8003 27.472 23.3335C29.1203 20.8668 30 17.9667 30 15C29.9928 11.024 28.4101 7.21284 25.5986 4.40136C22.7872 1.58987 18.976 0.00720951 15 0V0ZM15 26.3864C12.7525 26.3864 10.5554 25.7199 8.68671 24.4712C6.81797 23.2226 5.36145 21.4479 4.50137 19.3714C3.64128 17.295 3.41626 15.0101 3.85473 12.8058C4.29319 10.6015 5.37545 8.57665 6.96469 6.98741C8.55392 5.39818 10.5787 4.31592 12.7831 3.87745C14.9874 3.43898 17.2722 3.66401 19.3487 4.52409C21.4251 5.38418 23.1999 6.8407 24.4485 8.70944C25.6972 10.5782 26.3636 12.7752 26.3636 15.0227C26.3636 18.0365 25.1664 20.9269 23.0353 23.058C20.9042 25.1891 18.0138 26.3864 15 26.3864Z" fill="#0047FF"/>
<path d="M21.9998 15.0025C21.9998 15.5323 21.7902 16.0403 21.417 16.4149C21.0439 16.7895 20.5378 17 20.0101 17C13.5754 17 15.1606 16.996 9.98974 16.996C9.46203 16.996 8.95594 16.7855 8.58279 16.4109C8.20964 16.0363 8 15.5283 8 14.9985C8 14.4687 8.20964 13.9606 8.58279 13.586C8.95594 13.2114 9.46203 13.0009 9.98974 13.0009C16.1208 13.0009 15.0289 13.0009 19.9424 13.0009C20.4057 12.987 20.8605 13.1275 21.2358 13.4005C21.4776 13.5902 21.6724 13.8336 21.8049 14.1115C21.9375 14.3894 22.0042 14.6944 21.9998 15.0025Z" fill="#0047FF"/>
</svg>
