<svg width="30" height="30" viewBox="0 0 30 30" fill="none" xmlns="http://www.w3.org/2000/svg">
<path d="M15 0C12.0333 0 9.13318 0.879744 6.66645 2.52796C4.19971 4.17619 2.27714 6.51886 1.14183 9.25975C0.00651272 12.0006 -0.290555 15.0166 0.288223 17.9264C0.867 20.8361 2.29566 23.5088 4.39344 25.6066C6.49123 27.7044 9.16395 29.133 12.0737 29.7118C14.9834 30.2905 17.9994 29.9935 20.7403 28.8582C23.4811 27.7229 25.8238 25.8003 27.472 23.3335C29.1203 20.8668 30 17.9667 30 15C29.9928 11.024 28.4101 7.21284 25.5986 4.40136C22.7872 1.58987 18.976 0.0072095 15 0V0ZM15 26.3864C12.7525 26.3864 10.5554 25.7199 8.68671 24.4712C6.81797 23.2226 5.36145 21.4478 4.50137 19.3714C3.64128 17.295 3.41626 15.0101 3.85473 12.8058C4.29319 10.6015 5.37545 8.57665 6.96469 6.98741C8.55392 5.39818 10.5787 4.31592 12.7831 3.87745C14.9874 3.43898 17.2722 3.664 19.3487 4.52409C21.4251 5.38418 23.1999 6.8407 24.4485 8.70944C25.6972 10.5782 26.3636 12.7752 26.3636 15.0227C26.3636 18.0365 25.1664 20.9269 23.0353 23.058C20.9042 25.1891 18.0138 26.3864 15 26.3864Z" fill="white"/>
<path d="M21.9998 15.0051C21.9998 15.5328 21.7902 16.0388 21.417 16.4119C21.0439 16.785 20.5378 16.9946 20.0101 16.9946H16.9896V20.0106C16.9896 20.5382 16.78 21.0442 16.4069 21.4173C16.0337 21.7904 15.5276 22 14.9999 22C14.4722 22 13.9661 21.7904 13.5929 21.4173C13.2198 21.0442 13.0102 20.5382 13.0102 20.0106V16.9906H9.98974C9.46203 16.9906 8.95594 16.781 8.58279 16.4079C8.20964 16.0348 8 15.5288 8 15.0011C8 14.4735 8.20964 13.9675 8.58279 13.5944C8.95594 13.2213 9.46203 13.0117 9.98974 13.0117H13.0102V10.0594C13 9.59297 13.1488 9.13699 13.432 8.76623C13.6053 8.54387 13.824 8.36089 14.0735 8.22943C14.323 8.09798 14.5976 8.02106 14.879 8.00375C15.1605 7.98644 15.4424 8.02917 15.7061 8.12906C15.9698 8.22896 16.2093 8.38375 16.4087 8.5832C16.594 8.76796 16.7411 8.98748 16.8415 9.22918C16.9419 9.47088 16.9936 9.73 16.9936 9.99171V13.0117H19.9424C20.4057 12.9978 20.8605 13.1377 21.2358 13.4096C21.4776 13.5986 21.6724 13.841 21.8049 14.1178C21.9375 14.3946 22.0042 14.6983 21.9998 15.0051V15.0051Z" fill="white"/>
</svg>
