<svg width="30" height="30" viewBox="0 0 30 30" fill="none" xmlns="http://www.w3.org/2000/svg">
<path d="M29.6466 18.8937L28.9611 18.3657L26.6019 16.5651C26.5307 16.5132 26.4683 16.4699 26.4817 16.353C26.5972 15.491 26.5972 14.6181 26.4817 13.7561C26.4817 13.6825 26.4817 13.6046 26.4594 13.5267L26.5796 13.4229L28.418 12.0248L29.6822 11.064C29.8041 10.9812 29.8977 10.8648 29.9509 10.7298C30.004 10.5948 30.0143 10.4473 29.9804 10.3066C29.9533 10.1985 29.9098 10.0949 29.8513 9.99925L27.5767 6.16448C27.3275 5.73166 27.0782 5.29885 26.8245 4.90499C26.7489 4.76288 26.6273 4.64897 26.4784 4.5809C26.3295 4.51282 26.1617 4.49438 26.001 4.52843C25.9196 4.54591 25.8405 4.57203 25.765 4.60634L22.204 6.00867C22.1544 6.03283 22.0984 6.04164 22.0434 6.0339C21.9885 6.02616 21.9374 6.00223 21.8969 5.96537C21.1741 5.44554 20.3913 5.00976 19.5644 4.66691L19.4397 4.60634C19.4274 4.56378 19.4185 4.52038 19.413 4.4765C19.324 3.87488 19.235 3.27324 19.1504 2.66729C19.0658 2.06134 18.959 1.33421 18.8566 0.672002C18.8414 0.519255 18.7774 0.374976 18.6736 0.259339C18.5699 0.143701 18.4315 0.0624971 18.278 0.0271053C18.1832 0.00540324 18.0858 -0.00333638 17.9886 0.00113717H13.3014C12.8563 0.00113717 12.3711 0.00113717 11.9081 0.00113717C11.729 0.00166991 11.5559 0.0635793 11.4191 0.175993C11.2823 0.288406 11.1907 0.444116 11.1603 0.615733C11.1603 0.71961 11.1292 0.8235 11.1114 0.927376L10.7641 3.31221L10.5772 4.61067C9.64829 4.9905 8.77437 5.48666 7.97763 6.08657L7.76397 6.00867L4.26525 4.63664C4.17257 4.596 4.07552 4.56551 3.97591 4.54574C3.80943 4.52016 3.63893 4.54871 3.49084 4.62697C3.34275 4.70523 3.22537 4.82881 3.15688 4.97856L1.11372 8.41514C0.784325 8.96915 0.45937 9.52317 0.129974 10.0728C0.0510935 10.1849 0.0066855 10.3164 0.00195522 10.4521C-0.00277505 10.5878 0.0323695 10.722 0.103267 10.8389C0.171141 10.9496 0.260318 11.0466 0.365906 11.1246L3.40615 13.4445C3.4536 13.4727 3.49099 13.5144 3.51328 13.5639C3.53557 13.6135 3.54168 13.6685 3.53078 13.7215C3.40571 14.5829 3.40571 15.4571 3.53078 16.3184C3.54232 16.3688 3.53788 16.4215 3.51801 16.4694C3.49814 16.5173 3.46378 16.5582 3.41949 16.5868C2.76515 17.0759 2.11526 17.5736 1.46982 18.067L0.316948 18.9326C0.160785 19.0425 0.0529518 19.2055 0.0149962 19.3892C-0.0229595 19.573 0.0117448 19.7638 0.112178 19.9238C0.112178 19.9584 0.156698 19.9931 0.174503 20.0277L3.14352 25.0137C3.16908 25.06 3.19732 25.1048 3.22809 25.1479C3.29274 25.2482 3.38275 25.3307 3.48951 25.3875C3.59627 25.4443 3.71621 25.4736 3.83792 25.4725C3.96339 25.4679 4.087 25.4415 4.20293 25.3946L6.9672 24.3169L7.95092 23.9317C8.39605 24.2044 8.79221 24.4857 9.22399 24.7281C9.65576 24.9705 10.1142 25.1869 10.5861 25.4249C10.6796 26.0785 10.782 26.7537 10.8799 27.4332C10.9778 28.1127 11.0713 28.6927 11.1514 29.329C11.1815 29.5181 11.2811 29.6903 11.4316 29.8137C11.5822 29.937 11.7736 30.0031 11.9705 29.9998C13.9914 29.9998 16.0152 29.9998 18.042 29.9998C18.2479 30.004 18.4477 29.9322 18.6013 29.7989C18.7549 29.6656 18.8509 29.4807 18.87 29.2814C18.91 28.9221 18.9723 28.5629 19.0258 28.2036C19.1504 27.338 19.284 26.4724 19.4041 25.5764C19.4064 25.5196 19.4263 25.4648 19.4613 25.4192C19.4963 25.3736 19.5446 25.3394 19.6 25.3211C20.4097 24.9798 21.1735 24.5438 21.8746 24.0226C21.9066 23.9966 21.9408 23.9735 21.977 23.9534C22.0189 23.9353 22.0648 23.9278 22.1105 23.9317C22.157 23.9418 22.2019 23.9578 22.244 23.9793L25.8051 25.3773C25.8971 25.4227 25.9976 25.4497 26.1006 25.4566C26.2036 25.4635 26.3069 25.4502 26.4045 25.4175C26.5021 25.3848 26.5919 25.3333 26.6686 25.2662C26.7454 25.1991 26.8074 25.1177 26.8512 25.0267C27.8572 23.333 28.8617 21.6407 29.8647 19.9498C29.9798 19.7816 30.0215 19.5759 29.9806 19.3778C29.9397 19.1798 29.8195 19.0056 29.6466 18.8937ZM14.9884 21.5945C13.6476 21.5919 12.3377 21.2028 11.2243 20.4763C10.1109 19.7499 9.24407 18.7187 8.7334 17.5132C8.22273 16.3078 8.09118 14.9821 8.35535 13.7039C8.61952 12.4257 9.26757 11.2524 10.2175 10.3324C11.1675 9.4123 12.3767 8.7868 13.6923 8.53497C15.0079 8.28314 16.3707 8.41628 17.6085 8.91757C18.8462 9.41886 19.9033 10.2658 20.646 11.3512C21.3887 12.4367 21.7838 13.7119 21.7811 15.0156C21.78 15.8814 21.6033 16.7386 21.2612 17.5379C20.9191 18.3373 20.4182 19.0632 19.7874 19.6742C19.1565 20.2852 18.4079 20.7694 17.5845 21.0989C16.761 21.4283 15.8789 21.5968 14.9884 21.5945Z" fill="#36327F"/>
</svg>
