<svg width="51" height="50" viewBox="0 0 51 50" fill="none" xmlns="http://www.w3.org/2000/svg">
<g clip-path="url(#clip0_129_519)">
<path d="M25.6089 50C39.416 50 50.6089 38.8071 50.6089 25C50.6089 11.1929 39.416 0 25.6089 0C11.8018 0 0.608887 11.1929 0.608887 25C0.608887 38.8071 11.8018 50 25.6089 50Z" fill="#1C1952"/>
<path d="M21.3589 31.86C20.5389 28.42 16.6589 25.25 19.3589 21.98C19.8078 21.4684 20.4323 21.1437 21.1089 21.07C21.1089 21.07 20.1089 17.07 24.0589 16.71C24.0609 16.2187 24.1777 15.7347 24.4002 15.2966C24.6226 14.8585 24.9444 14.4786 25.3399 14.187C25.7353 13.8955 26.1935 13.7006 26.6778 13.6177C27.1621 13.5349 27.659 13.5665 28.1289 13.71C28.3803 13.2456 28.73 12.8417 29.1536 12.5263C29.5772 12.211 30.0645 11.9919 30.5815 11.8843C31.0985 11.7767 31.6328 11.7832 32.147 11.9034C32.6613 12.0236 33.1431 12.2545 33.5589 12.58C34.1401 12.0274 34.9008 11.7024 35.7019 11.6643C36.503 11.6263 37.2911 11.8778 37.922 12.3729C38.553 12.8679 38.9848 13.5735 39.1384 14.3607C39.2921 15.1478 39.1574 15.964 38.7589 16.66C39.1758 17.0153 39.5163 17.4514 39.7598 17.942C40.0033 18.4326 40.1447 18.9675 40.1755 19.5144C40.2064 20.0612 40.126 20.6087 39.9392 21.1236C39.7524 21.6385 39.4632 22.1101 39.0889 22.51C39.3227 22.9292 39.4616 23.3946 39.4959 23.8733C39.5302 24.352 39.459 24.8325 39.2873 25.2807C39.1157 25.7289 38.8477 26.134 38.5024 26.4673C38.1571 26.8007 37.7429 27.0542 37.2889 27.21C37.4789 28.86 37.1489 31 33.8589 31.21C34.1489 32.31 32.9689 35.66 29.8589 34.57C28.0039 33.7744 25.996 33.3987 23.9789 33.47C23.4225 33.5529 22.8548 33.4368 22.3756 33.1423C21.8963 32.8479 21.5363 32.3938 21.3589 31.86Z" fill="white"/>
<path d="M20.8389 35.13C20.8389 35.13 27.2889 22.36 36.0989 15.79" stroke="#1C1952" stroke-width="1.09" stroke-miterlimit="10"/>
<path d="M29.5588 15.54C30.1089 16.3129 30.4834 17.1966 30.6561 18.1294C30.8289 19.0622 30.8457 20.0814 30.6089 21C30.6089 21 32.4088 19.89 37.1788 21.48" stroke="#1C1952" stroke-width="1.09" stroke-miterlimit="10"/>
<path d="M24.6089 18.86C24.6089 18.86 27.2889 20.57 27.1889 25.09C28.5353 24.5621 29.9784 24.3257 31.4229 24.3964C32.8673 24.4671 34.2804 24.8432 35.5689 25.5" stroke="#1C1952" stroke-width="1.09" stroke-miterlimit="10"/>
<path d="M21.1389 22.86C22.1074 23.6776 22.8798 24.7024 23.3991 25.8586C23.9184 27.0148 24.1712 28.2729 24.1389 29.54C28.2889 26.89 33.1389 29.27 33.1389 29.27" stroke="#1C1952" stroke-width="1.09" stroke-miterlimit="10"/>
<path d="M19.0689 38.0901C18.5221 38.0901 17.9828 37.9616 17.4947 37.715C17.0066 37.4683 16.5833 37.1104 16.259 36.6701C15.7503 36.0061 15.4261 35.2196 15.3189 34.3901C14.3164 34.2401 13.3991 33.7407 12.729 32.9801C12.0935 32.1565 11.7837 31.1276 11.859 30.0901C10.9147 29.5413 10.2035 28.6665 9.85896 27.6301C9.57739 26.7703 9.60927 25.8386 9.94895 25.0001C9.24422 24.0673 8.91584 22.9037 9.02896 21.7401C9.12197 20.6539 9.55597 19.6248 10.2689 18.8001C9.966 17.9689 9.92937 17.064 10.1641 16.211C10.3989 15.358 10.8934 14.5992 11.579 14.0401C12.2789 13.43 13.1807 13.1021 14.109 13.1201C14.9867 13.1233 15.846 13.3727 16.589 13.8401C17.5414 13.3111 18.6524 13.1422 19.719 13.3644C20.7857 13.5865 21.7369 14.1848 22.399 15.0501C22.5586 15.0352 22.7193 15.0352 22.8789 15.0501C23.4599 15.0628 24.032 15.1944 24.5601 15.437C25.0881 15.6795 25.5608 16.0277 25.949 16.4601C26.4527 16.9722 26.7996 17.6175 26.949 18.3201C27.9129 18.5033 28.769 19.0514 29.339 19.8501C29.8975 20.7155 30.1444 21.7455 30.0389 22.7701C30.5999 22.9684 31.0972 23.3138 31.479 23.7701C33.669 26.4401 32.259 29.0601 31.009 31.3601C30.4243 32.3214 29.9639 33.3529 29.639 34.4301C29.4277 35.1678 28.9653 35.8085 28.3316 36.2413C27.698 36.674 26.933 36.8717 26.169 36.8001C24.2496 36.7286 22.3389 37.0909 20.579 37.8601C20.113 38.0251 19.6232 38.1129 19.1289 38.1201L19.0689 38.0901Z" fill="#1C1952"/>
<path d="M28.7089 34.19C29.5289 30.76 33.4189 27.58 30.7089 24.31C30.2602 23.7998 29.635 23.4782 28.9589 23.41C28.9589 23.41 29.9589 19.41 26.0189 19.05C26.0154 18.5583 25.8971 18.0742 25.6735 17.6362C25.4499 17.1983 25.1272 16.8185 24.731 16.5272C24.3348 16.2359 23.8761 16.0411 23.3914 15.9583C22.9067 15.8754 22.4094 15.9068 21.939 16.05C21.6872 15.5861 21.3375 15.1825 20.9143 14.8672C20.491 14.5519 20.0042 14.3324 19.4876 14.224C18.9711 14.1155 18.4371 14.1207 17.9228 14.2392C17.4085 14.3576 16.926 14.5866 16.5089 14.91C15.928 14.3517 15.1647 14.0222 14.36 13.9824C13.5552 13.9425 12.7631 14.1949 12.1298 14.693C11.4965 15.1912 11.0646 15.9015 10.9137 16.693C10.7629 17.4845 10.9032 18.3039 11.309 19C10.8874 19.3511 10.5425 19.7851 10.2958 20.2751C10.049 20.7651 9.90573 21.3006 9.87478 21.8483C9.84383 22.396 9.92588 22.9443 10.1158 23.459C10.3058 23.9736 10.5996 24.4437 10.979 24.84C10.7452 25.2592 10.6063 25.7246 10.572 26.2033C10.5377 26.682 10.6089 27.1625 10.7805 27.6107C10.9522 28.0589 11.2201 28.464 11.5654 28.7974C11.9107 29.1307 12.325 29.3842 12.779 29.54C12.589 31.19 12.9189 33.33 16.2089 33.59C15.9289 34.69 17.1089 38.05 20.2089 36.96C22.0624 36.1596 24.0715 35.7837 26.089 35.86C26.6528 35.9375 27.2257 35.8121 27.7057 35.5062C28.1856 35.2003 28.5411 34.7338 28.7089 34.19Z" fill="white"/>
<path d="M29.2588 37.4599C29.2588 37.4599 22.7988 24.6999 13.9888 18.1299" stroke="#1C1952" stroke-width="1.09" stroke-miterlimit="10"/>
<path d="M20.5089 17.8601C19.6701 19.5324 19.3233 21.4085 19.5089 23.2701C19.5089 23.2701 17.6589 22.2101 12.8889 23.8101" stroke="#1C1952" stroke-width="1.09" stroke-miterlimit="10"/>
<path d="M25.4588 21.1599C25.4588 21.1599 22.7788 22.8599 22.8788 27.3899C21.5323 26.862 20.0893 26.6256 18.6448 26.6963C17.2003 26.767 15.7872 27.1431 14.4988 27.7999" stroke="#1C1952" stroke-width="1.09" stroke-miterlimit="10"/>
<path d="M28.929 25.1599C27.9629 25.9774 27.192 27.0007 26.6729 28.1549C26.1538 29.309 25.8996 30.5647 25.929 31.8299C21.779 29.1799 16.929 31.5699 16.929 31.5699" stroke="#1C1952" stroke-width="1.09" stroke-miterlimit="10"/>
<path d="M18.1089 15.5C18.1089 16.3284 17.4373 17 16.6089 17C15.7805 17 15.1089 16.3284 15.1089 15.5C15.1089 14.6716 15.7805 14 16.6089 14C17.4373 14 18.1089 14.6716 18.1089 15.5Z" fill="white"/>
<path d="M39.7563 16.8509C39.7563 17.6793 39.0848 18.3509 38.2563 18.3509C37.4279 18.3509 36.7563 17.6793 36.7563 16.8509C36.7563 16.0224 37.4279 15.3509 38.2563 15.3509C39.0848 15.3509 39.7563 16.0224 39.7563 16.8509Z" fill="white"/>
</g>
<defs>
<clipPath id="clip0_129_519">
<rect width="50" height="50" fill="white" transform="translate(0.608887)"/>
</clipPath>
</defs>
</svg>
