<svg width="50" height="50" viewBox="0 0 50 50" fill="none" xmlns="http://www.w3.org/2000/svg">
<circle cx="25" cy="25" r="25" fill="#1C1952"/>
<path fill-rule="evenodd" clip-rule="evenodd" d="M12 22C12 17.0294 16.0294 13 21 13H29C33.9706 13 38 17.0294 38 22H12ZM38 31C38 33.2091 36.2091 35 34 35L16 35C13.7909 35 12 33.2091 12 31H31L32.1056 33.2111C32.4741 33.9482 33.5259 33.9482 33.8944 33.2111L35 31L38 31Z" fill="white"/>
<circle cx="0.5" cy="0.5" r="0.5" transform="matrix(-1 0 0 1 17 18)" fill="#1C1952"/>
<circle cx="0.5" cy="0.5" r="0.5" transform="matrix(-1 0 0 1 21 18)" fill="#1C1952"/>
<circle cx="24.5" cy="18.5" r="0.5" fill="#1C1952"/>
<circle cx="0.5" cy="0.5" r="0.5" transform="matrix(-1 0 0 1 29 18)" fill="#1C1952"/>
<circle cx="0.5" cy="0.5" r="0.5" transform="matrix(-1 0 0 1 33 18)" fill="#1C1952"/>
<circle cx="0.5" cy="0.5" r="0.5" transform="matrix(-1 0 0 1 31 16)" fill="#1C1952"/>
<circle cx="0.5" cy="0.5" r="0.5" transform="matrix(-1 0 0 1 27 16)" fill="#1C1952"/>
<circle cx="0.5" cy="0.5" r="0.5" transform="matrix(-1 0 0 1 23 16)" fill="#1C1952"/>
<circle cx="0.5" cy="0.5" r="0.5" transform="matrix(-1 0 0 1 19 16)" fill="#1C1952"/>
<path d="M40 24.5C40 25.3284 39.3284 26 38.5 26L11.5 26C10.6716 26 10 25.3284 10 24.5V24.5C10 23.6716 10.6716 23 11.5 23L38.5 23C39.3284 23 40 23.6716 40 24.5V24.5Z" fill="white"/>
<path fill-rule="evenodd" clip-rule="evenodd" d="M40 28.5C40 29.3284 39.3284 30 38.5 30L35.5 30C36.1491 28.7018 37.2018 27.6491 38.5 27C39.3284 27 40 27.6716 40 28.5ZM26.5 27C28.1159 27.5386 29.4962 28.5988 30.4328 30L11.5 30C10.6716 30 10 29.3284 10 28.5C10 27.6716 10.6716 27 11.5 27H13L14 28L14.4479 28.4479C14.7724 28.7724 15.276 28.8344 15.6695 28.5983L16.2763 28.2342C17.0897 27.7462 17.954 27.3487 18.8538 27.0487L19 27H26.5Z" fill="white"/>
</svg>
