<svg width="50" height="50" viewBox="0 0 50 50" fill="none" xmlns="http://www.w3.org/2000/svg">
<path d="M25 50C38.8071 50 50 38.8071 50 25C50 11.1929 38.8071 0 25 0C11.1929 0 0 11.1929 0 25C0 38.8071 11.1929 50 25 50Z" fill="#1C1952"/>
<path d="M35.2899 21.06L34.2899 21.3299H34.1099L26.7799 23.1899C24.2581 24.0033 21.5274 23.879 19.0899 22.8399C17.9899 22.4599 14.7199 21.29 14.7199 21.29C14.6246 21.2579 14.5418 21.1968 14.4831 21.1151C14.4244 21.0335 14.3928 20.9355 14.3928 20.8349C14.3928 20.7344 14.4244 20.6364 14.4831 20.5547C14.5418 20.4731 14.6246 20.4119 14.7199 20.3799L23.7199 18.0899C25.9247 17.3061 28.3492 17.4211 30.4699 18.4099L35.2999 20.12C35.4246 20.1213 35.5436 20.1721 35.6308 20.2611C35.718 20.3502 35.7663 20.4703 35.7649 20.5949C35.7636 20.7196 35.7128 20.8386 35.6237 20.9258C35.5347 21.013 35.4146 21.0613 35.2899 21.06V21.06Z" fill="white"/>
<path d="M14.79 11.67L18.91 20.51L18.26 20.66C18.2317 20.6709 18.2074 20.6901 18.1902 20.7151C18.173 20.7401 18.1639 20.7697 18.1639 20.8001C18.1639 20.8304 18.173 20.86 18.1902 20.885C18.2074 20.9099 18.2317 20.9291 18.26 20.94L19.26 21.27L21.33 21.95L21.81 22.09C23.1176 22.4452 24.494 22.4624 25.81 22.14C27.39 21.75 32.1 20.53 32.1 20.53C32.1371 20.53 32.1727 20.5153 32.199 20.489C32.2253 20.4628 32.24 20.4271 32.24 20.39C32.24 20.3529 32.2253 20.3173 32.199 20.291C32.1727 20.2648 32.1371 20.25 32.1 20.25L28.84 19.18C27.5408 18.6362 26.0898 18.5759 24.75 19.01L20.92 20.01L16.62 10.8C16.5709 10.6721 16.496 10.5557 16.3999 10.458C16.3039 10.3602 16.1888 10.2832 16.0618 10.2318C15.9348 10.1804 15.7986 10.1556 15.6616 10.159C15.5247 10.1624 15.3899 10.1939 15.2656 10.2516C15.1413 10.3093 15.0302 10.3919 14.9391 10.4943C14.8481 10.5967 14.7791 10.7167 14.7364 10.8469C14.6937 10.9771 14.6781 11.1147 14.6908 11.2511C14.7035 11.3876 14.7441 11.5199 14.81 11.64L14.79 11.67Z" fill="#1C1952"/>
<path d="M14.79 11.67L18.91 20.51L20.92 20.01L16.62 10.8C16.5709 10.6721 16.496 10.5557 16.3999 10.458C16.3039 10.3602 16.1888 10.2832 16.0618 10.2318C15.9348 10.1804 15.7986 10.1556 15.6616 10.159C15.5247 10.1624 15.3899 10.1939 15.2656 10.2516C15.1413 10.3093 15.0302 10.3919 14.9391 10.4943C14.8481 10.5967 14.7791 10.7167 14.7364 10.8469C14.6937 10.9771 14.6781 11.1147 14.6908 11.2511C14.7035 11.3876 14.7441 11.5199 14.81 11.64L14.79 11.67Z" fill="white"/>
<path d="M16.23 35.1401C16.2391 35.7903 16.4419 36.423 16.8124 36.9573C17.1829 37.4917 17.7043 37.9035 18.31 38.1401L18.53 38.2301C21.4969 39.2824 24.7098 39.4286 27.76 38.6501L30.88 37.8601C31.488 37.7067 32.0276 37.3549 32.4133 36.8605C32.7991 36.3661 33.009 35.7572 33.01 35.1301V23.1201L26.86 24.6801C24.3947 25.3096 21.7978 25.1912 19.4 24.3401L16.23 23.2101V35.1401Z" fill="white"/>
<path d="M18.3999 29.24V33.67C18.3999 35.54 19.7199 36.73 22.1899 36.73" stroke="#1C1952" stroke-miterlimit="10" stroke-linecap="round"/>
</svg>
