<svg width="50" height="50" viewBox="0 0 50 50" fill="none" xmlns="http://www.w3.org/2000/svg">
<circle cx="25" cy="25" r="25" fill="#1C1952"/>
<ellipse cx="25.5" cy="24" rx="11.5" ry="8" fill="white"/>
<ellipse cx="25.5" cy="23.5" rx="8.5" ry="5.5" fill="#1C1952"/>
<ellipse cx="25.5" cy="23.5" rx="6.5" ry="3.5" fill="white"/>
<path fill-rule="evenodd" clip-rule="evenodd" d="M40.852 25.8889L40.852 36.0743C40.852 36.5857 40.4374 37.0002 39.926 37.0002C39.4147 37.0002 39.0001 36.5857 39.0001 36.0743V24.037V19.4076V12.7407C39.0001 12.3316 39.3318 12 39.7409 12C41.3773 12 42.7038 13.3266 42.7038 14.963V24.037C42.7038 25.0598 41.8747 25.8889 40.852 25.8889ZM10.7037 37.0007C10.1923 37.0006 9.77778 36.5861 9.77778 36.0747L9.77778 20.2171C8.18131 19.8061 7.00143 18.3576 7 16.6332C7 16.6322 7 16.6312 7 16.6303V16.63V12.9266C7 12.4152 7.41455 12.0007 7.92593 12.0007C8.4373 12.0007 8.85185 12.4152 8.85185 12.9266L8.85185 16.63H9.77778L9.77778 12.9266C9.77778 12.4152 10.1923 12.0007 10.7037 12.0007C11.2151 12.0007 11.6296 12.4152 11.6296 12.9266L11.6296 16.63H12.5556V12.9266C12.5556 12.4152 12.9701 12.0007 13.4815 12.0007C13.9929 12.0007 14.4074 12.4152 14.4074 12.9266V16.63V16.6303C14.4074 16.6312 14.4074 16.6322 14.4074 16.6332C14.406 18.3576 13.2261 19.8061 11.6296 20.2171L11.6296 36.0747C11.6296 36.5861 11.2151 37.0007 10.7037 37.0007Z" fill="white"/>
<path fill-rule="evenodd" clip-rule="evenodd" d="M11.6295 16.168H9.77766C9.77748 16.4235 9.57027 16.6306 9.31469 16.6306C9.05911 16.6306 8.85191 16.4235 8.85173 16.168H7.92578V17.5569H13.4813V16.168H12.5554C12.5553 16.4235 12.348 16.6306 12.0925 16.6306C11.8369 16.6306 11.6297 16.4235 11.6295 16.168Z" fill="white"/>
</svg>
