<svg width="50" height="50" viewBox="0 0 50 50" fill="none" xmlns="http://www.w3.org/2000/svg">
<circle cx="25" cy="25" r="25" fill="#1C1952"/>
<path d="M33.9945 13.3513H17.0004L19.8327 36.8567H31.1622L33.9945 13.3513Z" fill="white"/>
<path d="M17.5004 13.3505C17.5004 13.4137 17.5522 13.5922 17.9418 13.847C18.3106 14.0882 18.8773 14.3246 19.6224 14.5307C21.1055 14.941 23.1828 15.2011 25.4974 15.2011C27.8121 15.2011 29.8894 14.941 31.3725 14.5307C32.1175 14.3246 32.6843 14.0882 33.0531 13.847C33.4427 13.5922 33.4945 13.4137 33.4945 13.3505C33.4945 13.2874 33.4427 13.1089 33.0531 12.8541C32.6843 12.6128 32.1175 12.3765 31.3725 12.1704C29.8894 11.7601 27.8121 11.5 25.4974 11.5C23.1828 11.5 21.1055 11.7601 19.6224 12.1704C18.8773 12.3765 18.3106 12.6128 17.9418 12.8541C17.5522 13.1089 17.5004 13.2874 17.5004 13.3505Z" fill="#1C1952" stroke="white"/>
<mask id="mask0_13_838" style="mask-type:alpha" maskUnits="userSpaceOnUse" x="17" y="11" width="17" height="28">
<path fill-rule="evenodd" clip-rule="evenodd" d="M17.0001 13.3505C17.0001 13.4048 17.0068 13.4586 17.0199 13.512L19.8328 36.8559H19.8329C19.8351 37.5046 22.3704 38.0304 25.4976 38.0304C28.6261 38.0304 31.1623 37.5042 31.1623 36.8551L33.9757 13.5074C33.9878 13.4563 33.9941 13.4048 33.9943 13.3529L33.9946 13.3505H33.9943L33.9943 13.3505C33.9943 12.0524 30.19 11 25.4972 11C20.8044 11 17.0001 12.0524 17.0001 13.3505Z" fill="white"/>
</mask>
<g mask="url(#mask0_13_838)">
<path d="M24.5531 26.0276C18.8884 26.0276 17.9442 26.2798 17.4722 27.455L17.0001 30.9808L22.1928 45.0841L34.9384 42.7335L39.1869 28.6303C31.1619 28.6303 31.634 26.0276 24.5531 26.0276Z" fill="#1C1952"/>
</g>
<path d="M20.7252 36.5H30.2751C30.5292 36.5 30.7429 36.3094 30.7718 36.0569L32.3758 22.0569C32.4098 21.7602 32.1777 21.5 31.879 21.5H19.1212C18.8225 21.5 18.5905 21.7602 18.6245 22.0569L20.2284 36.0569C20.2573 36.3094 20.471 36.5 20.7252 36.5Z" stroke="white"/>
</svg>
