<svg width="50" height="50" viewBox="0 0 50 50" fill="none" xmlns="http://www.w3.org/2000/svg">
<path d="M25 50C38.8071 50 50 38.8071 50 25C50 11.1929 38.8071 0 25 0C11.1929 0 0 11.1929 0 25C0 38.8071 11.1929 50 25 50Z" fill="#1C1952"/>
<path d="M17.9301 15.611C18.4419 14.4295 19.3512 13.4646 20.5002 12.8837C21.6492 12.3028 22.9654 12.1426 24.2202 12.431C28.9302 13.281 28.4601 18.431 28.4601 18.431C29.6715 18.2626 30.9057 18.4477 32.0145 18.9639C33.1232 19.4801 34.0592 20.3056 34.7101 21.341C36.8301 24.921 33.3902 30.091 33.3902 30.091L26.0002 33.521L18.4502 28.6309L17.9001 15.781" fill="white"/>
<path d="M26.0002 34.1296L18.0002 28.9297L17.4402 15.7997H18.3702L17.4802 15.4497C18.0459 14.1606 19.04 13.1068 20.2939 12.4671C21.5479 11.8273 22.9845 11.641 24.3602 11.9396C28.4602 12.6896 29.0002 16.3797 29.0502 17.8697C30.2734 17.7921 31.4946 18.0501 32.582 18.6159C33.6694 19.1816 34.5816 20.0335 35.2202 21.0797C37.4802 24.9197 34.0402 30.1797 33.8902 30.3997L33.8002 30.5297L26.0002 34.1296ZM19.0002 28.3297L26.0702 32.9096L33.0202 29.6497C33.5002 28.8697 36.0202 24.5497 34.2502 21.5897C33.6591 20.6407 32.8042 19.8845 31.79 19.4139C30.7759 18.9432 29.6465 18.7784 28.5402 18.9396L27.8602 19.0497L27.9202 18.3597C27.9202 18.1697 28.2902 13.7097 24.1202 12.9597C22.9968 12.6897 21.8144 12.822 20.7784 13.3335C19.7425 13.8451 18.9187 14.7036 18.4502 15.7597L19.0002 28.3297Z" fill="#1C1952"/>
<path d="M24.7 21.39C24.7 21.39 24.29 15.44 29.62 14.9C29.62 14.9 30.57 11.34 35.09 11.65C35.09 11.65 33.45 15.22 35.22 16.51C36.7776 17.5903 37.9011 19.1886 38.39 21.02C38.879 22.8515 38.7018 24.797 37.89 26.51C35.74 31.77 26.68 31.94 24.97 28.97C23.26 26 24.7 21.39 24.7 21.39Z" fill="white"/>
<path d="M29.9101 31.4503C27.3701 31.4503 25.3001 30.6103 24.5101 29.2403C22.8201 26.3003 23.9501 22.0403 24.1601 21.3503C24.1601 20.5303 24.1601 15.1803 29.2301 14.4303C29.6301 13.4303 31.1001 10.8603 35.1201 11.1403L35.8901 11.2003L35.5701 11.9003C35.1701 12.7903 34.3801 15.2603 35.5701 16.1103C37.2118 17.2633 38.3959 18.9568 38.915 20.8946C39.4342 22.8324 39.2555 24.891 38.4101 26.7103C37.1101 29.8903 33.6 31.2303 30.74 31.4203L29.9101 31.4503ZM34.3101 12.2003C33.3984 12.1709 32.5012 12.4334 31.7493 12.9497C30.9974 13.466 30.4301 14.209 30.1301 15.0703L30.0001 15.3903H29.6301C24.8901 15.8703 25.1801 21.0903 25.1901 21.3103V21.4103V21.5103C25.1901 21.5103 23.8401 25.9003 25.4101 28.6403C26.0601 29.7703 28.2001 30.4403 30.6201 30.2803C33.0401 30.1203 36.2601 28.9603 37.3701 26.2803C38.1301 24.6821 38.298 22.8658 37.8438 21.1553C37.3896 19.4448 36.3429 17.951 34.8901 16.9403C33.3401 15.8303 33.8901 13.3903 34.3101 12.2003Z" fill="#1C1952"/>
<path d="M20.6902 35.6297C20.6902 35.6297 19.6902 31.3197 25.3402 30.8797C25.3402 30.8797 24.4202 25.4798 29.8502 25.2398C29.8502 25.2398 28.8502 17.8198 36.0102 19.2398C36.0102 19.2398 38.6002 14.0797 43.4202 18.2897C43.4202 18.2897 40.2402 20.0998 40.2402 25.3398C40.2402 30.5798 37.1002 37.0797 30.1302 38.0697C23.1602 39.0597 20.6902 35.6297 20.6902 35.6297Z" fill="white"/>
<path d="M27.7101 38.8395C22.3701 38.8395 20.3501 36.0695 20.2601 35.9395L20.1701 35.7495C20.056 35.1685 20.0583 34.5706 20.1767 33.9904C20.2951 33.4103 20.5274 32.8594 20.8601 32.3695C21.3371 31.7853 21.9298 31.306 22.601 30.9618C23.2722 30.6176 24.0073 30.416 24.7601 30.3695C24.6416 28.9667 25.032 27.5681 25.8601 26.4295C26.2856 25.929 26.8079 25.5195 27.3956 25.2256C27.9833 24.9318 28.6243 24.7596 29.2801 24.7195C29.2801 23.6195 29.3401 21.1895 30.9401 19.7195C31.6034 19.1875 32.3829 18.8196 33.2153 18.6458C34.0477 18.4721 34.9093 18.4973 35.7301 18.7195C36.0895 18.11 36.5662 17.5779 37.1326 17.154C37.6991 16.73 38.344 16.4226 39.0301 16.2495C40.5401 15.9495 42.1401 16.5195 43.7701 17.9495L44.3401 18.4495L43.6901 18.8195C43.5701 18.8895 40.7801 20.5695 40.7801 25.4095C40.7801 31.2595 37.1501 37.6895 30.2001 38.6695C29.3752 38.7855 28.5431 38.8423 27.7101 38.8395V38.8395ZM21.2001 35.3895C21.6201 35.8995 24.0501 38.4395 30.0501 37.5795C36.3901 36.6795 39.7101 30.7595 39.7101 25.3795C39.7101 21.2795 41.5601 19.1495 42.5501 18.3095C42.1013 17.9169 41.5738 17.6246 41.003 17.4521C40.4322 17.2797 39.8312 17.2311 39.2401 17.3095C38.6527 17.4835 38.106 17.773 37.6321 18.1611C37.1581 18.5492 36.7665 19.028 36.4801 19.5695L36.3001 19.9295L35.9001 19.8495C34.0201 19.4595 32.6001 19.6995 31.6701 20.5495C30.0101 22.0895 30.3801 25.1695 30.3801 25.1995L30.4601 25.7795H29.8801C29.2831 25.7622 28.6895 25.8748 28.1405 26.1097C27.5914 26.3445 27.0999 26.6959 26.7001 27.1395C25.9775 28.2137 25.6815 29.5187 25.8701 30.7995L25.9701 31.3795H25.3801C24.693 31.3653 24.0109 31.5001 23.3808 31.7746C22.7508 32.0491 22.1876 32.4567 21.7301 32.9695C21.2408 33.6746 21.0503 34.5445 21.2001 35.3895V35.3895Z" fill="#1C1952"/>
<path d="M14.2002 14.5499C14.2002 14.5499 16.8702 16.3099 15.4702 20.0499C9.14017 36.8799 23.2902 38.2999 23.0902 38.2999C33.4202 22.9099 20.8002 16.84 20.8002 16.84C20.8002 16.84 18.5802 12.3299 14.2002 14.5499Z" fill="white"/>
<path d="M23.0901 38.8403H22.0901L22.1902 38.6803C20.6683 38.3773 19.2236 37.7692 17.9432 36.8927C16.6628 36.0162 15.5732 34.8894 14.7401 33.5803C12.7401 30.1803 12.8202 25.5803 14.9702 19.8603C16.2002 16.5903 13.9702 15.0603 13.9102 14.9903L13.1501 14.4803L13.9601 14.0703C14.5626 13.7306 15.2276 13.5165 15.9151 13.4409C16.6026 13.3652 17.2983 13.4297 17.9601 13.6303C19.3262 14.1622 20.4622 15.1567 21.1702 16.4403C22.6319 17.2399 23.9214 18.3203 24.9647 19.6193C26.008 20.9183 26.7847 22.4105 27.2502 24.0103C28.4002 28.2303 27.1702 33.1003 23.6002 38.4803V38.8403H23.0901ZM15.1702 14.7203C15.8218 15.4652 16.2439 16.3827 16.3859 17.3621C16.5278 18.3415 16.3835 19.3411 15.9702 20.2403C13.9702 25.6203 13.8402 29.9303 15.6702 33.0403C17.6702 36.4703 21.5401 37.4703 22.8401 37.7103C26.1501 32.7103 27.2901 28.1603 26.2401 24.2903C25.3512 21.2985 23.3122 18.7812 20.5702 17.2903L20.4001 17.2103L20.3202 17.0503C19.7375 15.9466 18.7853 15.0829 17.6302 14.6103C16.8208 14.3721 15.9551 14.4108 15.1702 14.7203V14.7203Z" fill="#1C1952"/>
<path d="M20.7102 34.9012C20.6091 34.9031 20.5093 34.879 20.4202 34.8312C19.3264 34.2089 18.4132 33.3129 17.7702 32.2312C17.7184 32.1657 17.6811 32.09 17.6608 32.009C17.6405 31.928 17.6376 31.8436 17.6523 31.7614C17.667 31.6792 17.699 31.6011 17.7461 31.5322C17.7933 31.4633 17.8545 31.4052 17.9258 31.3617C17.9971 31.3182 18.0768 31.2904 18.1596 31.28C18.2425 31.2696 18.3266 31.2769 18.4064 31.3014C18.4862 31.326 18.5599 31.3672 18.6226 31.4223C18.6853 31.4774 18.7356 31.5452 18.7702 31.6212C19.3097 32.5281 20.0789 33.2766 21.0002 33.7912C21.1179 33.8541 21.2108 33.955 21.2637 34.0775C21.3167 34.1999 21.3266 34.3367 21.2918 34.4656C21.2569 34.5944 21.1795 34.7076 21.072 34.7867C20.9646 34.8658 20.8335 34.9062 20.7002 34.9012H20.7102Z" fill="#1C1952"/>
<path d="M33.29 35.0599C33.1846 35.06 33.081 35.0323 32.9898 34.9796C32.8985 34.927 32.8227 34.8512 32.77 34.7599C32.7308 34.6924 32.7054 34.6178 32.6952 34.5404C32.685 34.463 32.6903 34.3843 32.7108 34.309C32.7313 34.2336 32.7665 34.1631 32.8144 34.1015C32.8623 34.0398 32.922 33.9883 32.99 33.9499C33.9057 33.427 34.6705 32.676 35.21 31.7699C35.2929 31.6356 35.4247 31.5387 35.5776 31.4995C35.7305 31.4604 35.8927 31.482 36.03 31.5599C36.1646 31.6427 36.2611 31.7753 36.2985 31.9288C36.336 32.0823 36.3114 32.2444 36.23 32.3799C35.5925 33.466 34.678 34.3632 33.58 34.9799C33.4917 35.0308 33.3919 35.0583 33.29 35.0599V35.0599Z" fill="#1C1952"/>
<path d="M17.3202 29.9604C17.1841 29.961 17.0521 29.9145 16.9464 29.8288C16.8407 29.7432 16.7678 29.6236 16.7402 29.4904C16.3562 27.3438 16.445 25.1393 17.0002 23.0305C17.0444 22.8782 17.147 22.7496 17.2856 22.6728C17.4243 22.596 17.5877 22.5772 17.7402 22.6204C17.8924 22.6646 18.021 22.7672 18.0978 22.9059C18.1746 23.0445 18.1934 23.2079 18.1502 23.3604C17.6531 25.2845 17.5713 27.2923 17.9102 29.2504C17.9396 29.4055 17.9069 29.5659 17.8189 29.6969C17.7309 29.8279 17.5948 29.919 17.4402 29.9504L17.3202 29.9604Z" fill="#1C1952"/>
<path d="M26.8902 21.0008H26.8102C26.6553 20.976 26.516 20.8927 26.421 20.7679C26.3261 20.6431 26.2828 20.4866 26.3001 20.3308C26.5701 18.2408 27.1802 17.1208 28.3502 16.5708C28.4223 16.5254 28.5034 16.4958 28.5878 16.4842C28.6723 16.4725 28.7583 16.479 28.8401 16.5032C28.9218 16.5274 28.9975 16.5687 29.0621 16.6245C29.1266 16.6802 29.1785 16.7491 29.2143 16.8265C29.2502 16.9039 29.2691 16.988 29.2698 17.0733C29.2706 17.1585 29.2532 17.243 29.2187 17.321C29.1842 17.399 29.1335 17.4688 29.07 17.5256C29.0064 17.5825 28.9315 17.6252 28.8502 17.6508C28.3002 17.9108 27.7502 18.4308 27.4802 20.4808C27.463 20.6248 27.3933 20.7575 27.2844 20.8534C27.1756 20.9494 27.0352 21.0018 26.8902 21.0008V21.0008Z" fill="#1C1952"/>
<path d="M36.3102 21.8794H36.1702C35.7657 21.7944 35.3535 21.7508 34.9402 21.7494V21.7494C34.7828 21.7494 34.6317 21.6876 34.5194 21.5772C34.4072 21.4669 34.3428 21.3168 34.3402 21.1594C34.3359 21.0795 34.3484 20.9995 34.377 20.9248C34.4056 20.85 34.4497 20.7821 34.5063 20.7255C34.5629 20.6689 34.6308 20.6249 34.7055 20.5963C34.7803 20.5676 34.8603 20.5551 34.9402 20.5594C35.4517 20.5581 35.9616 20.6151 36.4602 20.7294C36.6121 20.753 36.7488 20.835 36.8412 20.9579C36.9335 21.0808 36.9743 21.2349 36.9547 21.3874C36.9352 21.5399 36.8569 21.6788 36.7365 21.7744C36.6161 21.87 36.4632 21.9149 36.3102 21.8994V21.8794Z" fill="#1C1952"/>
<path d="M18.4641 39.5391C17.8953 39.5391 17.3345 39.4055 16.8269 39.149C16.3193 38.8925 15.8791 38.5203 15.5417 38.0624C15.0128 37.3718 14.6756 36.5539 14.5642 35.6912C13.5215 35.5352 12.5676 35.0159 11.8706 34.2249C11.2097 33.3684 10.8876 32.2984 10.9659 31.2193C9.9839 30.6486 9.24423 29.7388 8.88593 28.661C8.59311 27.7669 8.62626 26.7979 8.97952 25.9259C8.24661 24.9558 7.90511 23.7457 8.02275 22.5356C8.11948 21.406 8.57083 20.3358 9.3123 19.4781C8.99725 18.6136 8.95915 17.6726 9.20329 16.7855C9.44742 15.8984 9.96168 15.1093 10.6747 14.5278C11.4026 13.8934 12.3404 13.5523 13.3058 13.571C14.2186 13.5744 15.1122 13.8338 15.8849 14.3198C16.8755 13.7696 18.0308 13.5941 19.1401 13.8251C20.2494 14.0561 21.2386 14.6783 21.9272 15.5782C22.0932 15.5627 22.2603 15.5627 22.4263 15.5782C23.0305 15.5914 23.6255 15.7283 24.1747 15.9805C24.7238 16.2327 25.2154 16.5949 25.6191 17.0446C26.1429 17.5771 26.5037 18.2482 26.659 18.9789C27.6615 19.1694 28.5518 19.7394 29.1446 20.5701C29.7254 21.4701 29.9822 22.5412 29.8725 23.6068C30.4559 23.813 30.9731 24.1722 31.3701 24.6467C33.6476 27.4235 32.1813 30.1482 30.8813 32.5401C30.2733 33.5398 29.7945 34.6126 29.4565 35.7328C29.2369 36.5 28.7559 37.1663 28.0969 37.6164C27.438 38.0665 26.6424 38.2721 25.8478 38.1976C23.8518 38.1232 21.8647 38.5 20.0344 39.2999C19.5498 39.4715 19.0405 39.5629 18.5264 39.5703L18.4641 39.5391Z" fill="#1C1952"/>
<path d="M28.4894 35.4831C29.3421 31.916 33.3876 28.6089 30.5693 25.2082C30.1026 24.6776 29.4524 24.3432 28.7494 24.2722C28.7494 24.2722 29.7893 20.1124 25.6918 19.738C25.6881 19.2266 25.5651 18.7231 25.3326 18.2677C25.1 17.8122 24.7644 17.4173 24.3524 17.1144C23.9404 16.8114 23.4634 16.6088 22.9593 16.5226C22.4552 16.4365 21.938 16.4692 21.4488 16.6181C21.1869 16.1356 20.8233 15.7159 20.3831 15.388C19.9429 15.0601 19.4367 14.8318 18.8995 14.719C18.3623 14.6063 17.807 14.6117 17.2721 14.7348C16.7372 14.858 16.2355 15.0961 15.8017 15.4325C15.1975 14.8519 14.4038 14.5092 13.5668 14.4678C12.7299 14.4263 11.9062 14.6888 11.2475 15.2068C10.5889 15.7249 10.1397 16.4636 9.98283 17.2867C9.82595 18.1099 9.97194 18.962 10.3939 19.686C9.95543 20.051 9.59676 20.5024 9.34018 21.012C9.08359 21.5216 8.93457 22.0785 8.90238 22.6481C8.87019 23.2177 8.95553 23.7879 9.15307 24.3231C9.35062 24.8584 9.65615 25.3473 10.0507 25.7594C9.80757 26.1953 9.66309 26.6793 9.62743 27.1772C9.59178 27.6751 9.66581 28.1747 9.84433 28.6408C10.0228 29.107 10.3015 29.5282 10.6606 29.8749C11.0197 30.2216 11.4505 30.4852 11.9226 30.6473C11.725 32.3632 12.0682 34.5888 15.4897 34.8591C15.1985 36.0031 16.4257 39.4974 19.6496 38.3639C21.5772 37.5314 23.6665 37.1405 25.7646 37.2199C26.351 37.3004 26.9469 37.17 27.446 36.8519C27.945 36.5338 28.3148 36.0487 28.4894 35.4831Z" fill="white"/>
<path d="M29.0611 38.8837C29.0611 38.8837 22.3429 25.6137 13.1808 18.7811" stroke="#1C1952" stroke-width="1.09" stroke-miterlimit="10" stroke-linecap="round"/>
<path d="M19.9616 18.5005C19.0892 20.2397 18.7286 22.1907 18.9216 24.1268C18.9216 24.1268 16.9976 23.0244 12.037 24.6884" stroke="#1C1952" stroke-width="1.09" stroke-miterlimit="10" stroke-linecap="round"/>
<path d="M25.1093 21.9323C25.1093 21.9323 22.3221 23.7002 22.4261 28.4113C21.0259 27.8623 19.5251 27.6164 18.0229 27.6899C16.5207 27.7634 15.0511 28.1546 13.7112 28.8377" stroke="#1C1952" stroke-width="1.09" stroke-miterlimit="10" stroke-linecap="round"/>
<path d="M28.7182 26.0921C27.7135 26.9423 26.9118 28.0065 26.372 29.2068C25.8321 30.407 25.5678 31.713 25.5983 33.0287C21.2824 30.2728 16.2385 32.7583 16.2385 32.7583" stroke="#1C1952" stroke-width="1.09" stroke-miterlimit="10" stroke-linecap="round"/>
<path d="M17.4656 16.0461C17.4656 16.9076 16.7672 17.6061 15.9057 17.6061C15.0441 17.6061 14.3457 16.9076 14.3457 16.0461C14.3457 15.1846 15.0441 14.4861 15.9057 14.4861C16.7672 14.4861 17.4656 15.1846 17.4656 16.0461Z" fill="white"/>
</svg>
